<svg width="212" height="235" viewBox="0 0 212 235" fill="none" xmlns="http://www.w3.org/2000/svg">
<g clip-path="url(#clip0_5_1010)">
<line x1="17.2236" y1="29.5528" x2="59.2236" y2="50.5528" stroke="white"/>
<line x1="14.1288" y1="38.5169" x2="59.1288" y2="50.5169" stroke="white"/>
<line x1="23.3201" y1="20.6159" x2="59.3201" y2="50.6159" stroke="white"/>
<line x1="32.4076" y1="12.7104" x2="59.4076" y2="50.7104" stroke="white"/>
<line x1="45.4786" y1="6.85531" x2="58.4786" y2="49.8553" stroke="white"/>
<line x1="106.689" y1="78.4456" x2="65.755" y2="55.4359" stroke="white"/>
<line x1="110.214" y1="69.6418" x2="65.848" y2="55.4762" stroke="white"/>
<line x1="100.166" y1="87.0767" x2="65.6617" y2="55.3681" stroke="white"/>
<line x1="90.7065" y1="94.5327" x2="65.5789" y2="55.2695" stroke="white"/>
<line x1="77.574" y1="99.2812" x2="65.994" y2="55.8773" stroke="white"/>
<path d="M68.0685 35.2326L73.8587 35.1875L77.8765 39.6436L84.0067 37.4824L88.0977 40.5261L92.852 37.5858L96.9795 39.9233L102.811 36.6846L106.939 39.0222L111.285 37.1228L116.189 39.0324" stroke="#EE6D52"/>
<path d="M66.6438 21.7058L71.2469 24.0774L76.6709 21.8797L82.4725 26.074L89.3088 23.9493L94.4407 27.4009L100.942 24.9049L107.486 28.4296L114.764 25.5055" stroke="#EE6D52"/>
<path d="M67.2747 45.614L71.8777 47.9857L77.3018 45.7879L83.1033 49.9822L89.9397 47.8576L95.0716 51.3092L101.573 48.8131L108.117 52.3378L115.395 49.4137" stroke="#EE6D52"/>
<path d="M65.2191 8.17932L69.7857 11.2571L75.2462 8.35328L80.0068 12.1397L85.4673 9.23583L90.2644 12.3161L96.0598 9.78356L100.522 12.4925L107.06 9.29031L113.339 11.9791" stroke="#EE6D52"/>
<path d="M13.9395 80.9375L19.7088 80.4441L24.0597 84.5757L30.0041 81.9462L34.3185 84.664L38.8308 81.3642L43.1269 83.3751L48.6905 79.6945L52.9865 81.7054L57.1729 79.4751L62.2096 80.9991" stroke="#76A4E4"/>
<path d="M11.4716 67.5617L16.2445 69.5698L21.482 66.9586L27.591 70.6909L34.2422 68.0432L39.626 71.087L45.9147 68.0949L52.7123 71.1022L59.7416 67.6233" stroke="#76A4E4"/>
<path d="M14.0045 91.6159L18.7774 93.624L24.0149 91.0128L30.1239 94.7451L36.7751 92.0974L42.1589 95.1412L48.4476 92.1491L55.2452 95.1564L62.2745 91.6775" stroke="#76A4E4"/>
<path d="M9.00356 54.1861L13.7947 56.901L19.014 53.583L24.0535 56.9893L29.2728 53.6713L34.294 56.3708L39.8758 53.397L44.5345 55.7522L50.8049 52.0533L57.2736 54.2477" stroke="#76A4E4"/>
<line x1="50.0609" y1="208.298" x2="64.4806" y2="163.61" stroke="white"/>
<line x1="202.076" y1="213.021" x2="162.715" y2="187.415" stroke="white"/>
<line x1="59.3893" y1="210.004" x2="64.4593" y2="163.708" stroke="white"/>
<line x1="206.163" y1="204.464" x2="162.805" y2="187.461" stroke="white"/>
<line x1="40.3061" y1="203.62" x2="64.5283" y2="163.505" stroke="white"/>
<line x1="195.01" y1="221.213" x2="162.626" y2="187.341" stroke="white"/>
<line x1="31.1195" y1="195.83" x2="64.6086" y2="163.404" stroke="white"/>
<line x1="185.088" y1="228.042" x2="162.55" y2="187.237" stroke="white"/>
<line x1="23.3585" y1="183.793" x2="63.9035" y2="164.451" stroke="white"/>
<line x1="171.44" y1="232.384" x2="163.376" y2="188.192" stroke="white"/>
<line x1="84.8892" y1="112.478" x2="68.3218" y2="156.416" stroke="white"/>
<line x1="118.701" y1="154.343" x2="156.776" y2="181.826" stroke="white"/>
<line x1="75.6543" y1="110.322" x2="68.3478" y2="156.318" stroke="white"/>
<line x1="114.205" y1="162.692" x2="156.688" y2="181.775" stroke="white"/>
<line x1="94.406" y1="117.623" x2="68.269" y2="156.518" stroke="white"/>
<line x1="126.156" y1="146.503" x2="156.861" y2="181.903" stroke="white"/>
<line x1="103.204" y1="125.849" x2="68.1839" y2="156.615" stroke="white"/>
<line x1="136.397" y1="140.163" x2="156.932" y2="182.011" stroke="white"/>
<line x1="109.881" y1="138.114" x2="68.7222" y2="156.113" stroke="white"/>
<line x1="149.982" y1="136.926" x2="156.589" y2="181.36" stroke="white"/>
<path d="M48.0008 157.178L47.0822 151.461L50.8807 146.817L47.819 141.083L50.2104 136.58L46.586 132.324L48.2738 127.891L44.1919 122.614L45.8797 118.181L43.346 114.171L44.4935 109.036" stroke="#EE6D52"/>
<path d="M34.8442 160.629L36.4939 155.72L33.5027 150.69L36.7732 144.322L33.6409 137.885L36.2783 132.291L32.8296 126.24L35.326 119.239L31.3369 112.486" stroke="#EE6D52"/>
<path d="M58.3831 156.396L60.0328 151.488L57.0415 146.458L60.312 140.09L57.1798 133.652L59.8172 128.058L56.3684 122.008L58.8648 115.007L54.8758 108.254" stroke="#EE6D52"/>
<path d="M21.6876 164.078L24.0409 159.1L20.3461 154.14L23.3705 148.862L19.6757 143.903L21.9965 138.696L18.6183 133.349L20.6226 128.529L16.4702 122.549L18.1803 115.936" stroke="#EE6D52"/>
<path d="M101.352 203.788L99.9939 198.159L103.421 193.235L99.9247 187.755L101.96 183.08L98.017 179.117L99.3564 174.567L94.8782 169.623L96.2176 165.072L93.3809 161.271L94.1272 156.062" stroke="#76A4E4"/>
<path d="M88.5025 208.247L89.7671 203.225L86.3953 198.442L89.1628 191.84L85.5414 185.664L87.7376 179.883L83.8306 174.118L85.7773 166.944L81.2773 160.52" stroke="#76A4E4"/>
<path d="M75.6527 212.705L77.6133 207.559L73.5454 202.901L76.1521 197.405L72.0842 192.746L73.9949 187.375L70.2127 182.306L71.8377 177.345L67.2347 171.705L68.4275 164.979" stroke="#76A4E4"/>
<path d="M67.2191 237.179L71.7857 240.257L77.2462 237.353L82.0068 241.14L87.4673 238.236L92.2644 241.316L98.0598 238.784L102.522 241.492L109.06 238.29L115.339 240.979" stroke="#EE6D52"/>
<path d="M146.911 43.1567C143.745 42.756 137.574 44.6347 138.221 55.3549C138.869 66.0751 127.313 82.2725 121.454 89.0312" stroke="white" stroke-width="0.414085"/>
<path d="M136.126 107.677C139.309 107.573 145.028 104.68 142.445 93.9429C139.862 83.2063 148.269 64.9666 152.795 57.1888" stroke="white" stroke-width="0.414085"/>
<path d="M158.651 17.6495C163.508 18.0117 179.275 35.2304 173.174 40.3555C170.632 42.4909 164.036 46.5095 159.236 46.9884C154.435 47.4673 149.405 45.0926 147.646 44.0314C144.364 40.1247 144.661 38.1727 145.909 33.0781C147.72 25.6868 154.765 17.3596 158.651 17.6495Z" fill="#E8DDD1"/>
<path d="M155.418 19.2199C156.718 24.897 161.292 36.1212 173.174 40.3555M173.174 40.3555C179.275 35.2304 163.508 18.0117 158.651 17.6495C154.765 17.3596 147.72 25.6868 145.909 33.0781C144.661 38.1727 144.364 40.1247 147.646 44.0314C149.405 45.0926 154.435 47.4673 159.236 46.9884C164.036 46.5095 170.632 42.4909 173.174 40.3555Z" stroke="black" stroke-width="0.414085"/>
<path d="M128.637 135.342C123.85 135.868 105.79 121.493 110.925 115.238C113.064 112.632 118.856 107.395 123.456 106.036C128.055 104.676 133.327 106.136 135.207 106.877C139.017 110.193 139.034 112.204 138.62 117.54C138.018 125.282 132.467 134.92 128.637 135.342Z" fill="#E8DDD1"/>
<path d="M131.539 133.175C129.38 127.722 123.161 117.307 110.925 115.238M110.925 115.238C105.79 121.493 123.85 135.868 128.637 135.342C132.467 134.92 138.018 125.282 138.62 117.54C139.034 112.204 139.017 110.193 135.207 106.877C133.327 106.136 128.055 104.676 123.456 106.036C118.856 107.395 113.064 112.632 110.925 115.238Z" stroke="black" stroke-width="0.414085"/>
<circle cx="164.423" cy="60.115" r="4.5" transform="rotate(49.9652 164.423 60.115)" fill="#6C7E96"/>
<circle cx="131.776" cy="92.7673" r="4.5" transform="rotate(49.9652 131.776 92.7673)" fill="#6C7E96" fill-opacity="0.33"/>
</g>
<defs>
<clipPath id="clip0_5_1010">
<rect width="212" height="235" rx="16" fill="white"/>
</clipPath>
</defs>
</svg>
