<svg width="28" height="28" viewBox="0 0 28 28" fill="none" xmlns="http://www.w3.org/2000/svg">
<path d="M0 14C0 6.26801 6.26801 0 14 0C21.732 0 28 6.26801 28 14C28 21.732 21.732 28 14 28C6.26801 28 0 21.732 0 14Z" fill="#152137"/>
<path d="M14.7974 19.6442V14.2913H16.5942L16.8637 12.2052H14.7974V10.8733C14.7974 10.2693 14.9652 9.85773 15.8313 9.85773H16.936V7.99244C16.4013 7.93588 15.8639 7.90848 15.3263 7.91037C13.7335 7.91037 12.6431 8.88249 12.6431 10.6679V12.2052H10.8418V14.2913H12.6431V19.6442H14.7974Z" fill="#1778F2"/>
</svg>
