<svg width="28" height="28" viewBox="0 0 28 28" fill="none" xmlns="http://www.w3.org/2000/svg">
<path d="M0 14C0 6.26801 6.26801 0 14 0C21.732 0 28 6.26801 28 14C28 21.732 21.732 28 14 28C6.26801 28 0 21.732 0 14Z" fill="#152137"/>
<path d="M19.9744 14.8047V18.9277H17.5842V15.0814C17.5842 14.1153 17.2396 13.4555 16.3735 13.4555C15.7138 13.4555 15.3212 13.9003 15.148 14.3303C15.0844 14.4835 15.0688 14.6967 15.0688 14.9126V18.9277H12.6778C12.6778 18.9277 12.71 12.4128 12.6778 11.7384H15.0688V12.7575C15.0644 12.7653 15.0575 12.7731 15.0531 12.7809H15.0688V12.7575C15.3865 12.2684 15.9531 11.5694 17.223 11.5694C18.7958 11.5694 19.9744 12.5973 19.9744 14.8047ZM10.178 8.27319C9.35984 8.27319 8.82544 8.81023 8.82544 9.51527C8.82544 10.2055 9.3442 10.7572 10.1467 10.7572H10.1615C10.9954 10.7572 11.5141 10.2055 11.5141 9.51527C11.4984 8.81027 10.9954 8.27319 10.178 8.27319ZM8.96732 18.9277H11.3566V11.7384H8.96732V18.9277Z" fill="#0A7BBA"/>
</svg>
