<svg width="28" height="28" viewBox="0 0 28 28" fill="none" xmlns="http://www.w3.org/2000/svg">
<path d="M0 14C0 6.26801 6.26801 0 14 0C21.732 0 28 6.26801 28 14C28 21.732 21.732 28 14 28C6.26801 28 0 21.732 0 14Z" fill="#152137"/>
<path d="M11.0327 23.4724C11.4439 22.8069 12.0433 21.7376 12.2634 20.8772C12.3868 20.4099 12.8889 18.5083 12.8889 18.5083C13.2099 19.1313 14.1646 19.6559 15.1769 19.6559C18.1893 19.6559 20.3621 16.8936 20.3621 13.4591C20.3621 10.164 17.6625 7.70503 14.1975 7.70503C9.87653 7.70503 7.58847 10.5903 7.58847 13.7296C7.58847 15.1968 8.37037 17.0083 9.62141 17.5903C9.8107 17.6804 9.9177 17.6394 9.95882 17.4591C9.97247 17.4014 10.0101 17.2507 10.0549 17.0719C10.1181 16.8192 10.1953 16.5104 10.2387 16.328C10.2634 16.2296 10.2551 16.1394 10.1728 16.0411C9.76132 15.5411 9.43207 14.6231 9.43207 13.7706C9.43207 11.5739 11.1029 9.45095 13.9506 9.45095C16.4115 9.45095 18.1317 11.1149 18.1317 13.5001C18.1317 16.1887 16.7654 18.0575 14.9877 18.0575C14.0082 18.0575 13.2675 17.246 13.5062 16.2542C13.6087 15.8311 13.7436 15.3966 13.8748 14.9739C14.1122 14.2093 14.3374 13.4835 14.3374 12.9345C14.3374 12.1722 13.9259 11.5329 13.0699 11.5329C12.0658 11.5329 11.2592 12.5657 11.2592 13.9509C11.2592 14.828 11.5555 15.4264 11.5555 15.4264C11.5555 15.4264 10.5679 19.5985 10.3868 20.3772C10.1895 21.2369 10.2632 22.4484 10.3536 23.2353C10.5762 23.3222 10.8026 23.4013 11.0327 23.4724Z" fill="#CC2127"/>
</svg>
