<svg width="28" height="28" viewBox="0 0 28 28" fill="none" xmlns="http://www.w3.org/2000/svg">
<path d="M0 14C0 6.26801 6.26801 0 14 0C21.732 0 28 6.26801 28 14C28 21.732 21.732 28 14 28C6.26801 28 0 21.732 0 14Z" fill="#152137"/>
<path d="M20.1254 11.1869C19.6969 11.3769 19.2359 11.5055 18.7525 11.5629C19.246 11.2671 19.6248 10.7992 19.8036 10.2407C19.3418 10.5147 18.83 10.7135 18.2858 10.8206C17.8498 10.3562 17.2285 10.066 16.5406 10.066C15.2208 10.066 14.1504 11.1365 14.1504 12.4563C14.1504 12.6436 14.1716 12.826 14.2126 13.0011C12.2261 12.9014 10.4647 11.9499 9.28571 10.5033C9.08 10.8563 8.96199 11.2671 8.96199 11.7051C8.96199 12.5342 9.38429 13.2661 10.0253 13.6947C9.63367 13.6824 9.26485 13.5749 8.94274 13.3954C8.94256 13.4055 8.94256 13.4157 8.94256 13.4257C8.94256 14.5838 9.76683 15.5498 10.8601 15.7692C10.6597 15.8241 10.4481 15.8532 10.2305 15.8532C10.0761 15.8532 9.92655 15.8384 9.78073 15.8106C10.0848 16.76 10.9674 17.4511 12.0136 17.4705C11.1954 18.1117 10.1649 18.4937 9.04471 18.4937C8.85219 18.4937 8.66145 18.4825 8.47482 18.4602C9.53206 19.1387 10.7888 19.5342 12.1385 19.5342C16.5351 19.5342 18.9394 15.892 18.9394 12.7331C18.9394 12.6296 18.9371 12.5264 18.9325 12.424C19.3999 12.0871 19.8051 11.6663 20.1254 11.1869Z" fill="#55ACEE"/>
</svg>
